<?xml version="1.0" standalone="no"?>
<!DOCTYPE svg PUBLIC "-//W3C//DTD SVG 20010904//EN"
 "http://www.w3.org/TR/2001/REC-SVG-20010904/DTD/svg10.dtd">
<svg version="1.0" xmlns="http://www.w3.org/2000/svg"
 width="512.000000pt" height="512.000000pt" viewBox="0 0 512.000000 512.000000"
 preserveAspectRatio="xMidYMid meet">

<g transform="translate(0.000000,512.000000) scale(0.100000,-0.100000)"
fill="#74447a" stroke="none">
<path d="M1132 4587 c-52 -105 -137 -193 -235 -242 -38 -19 -77 -35 -86 -35
-9 0 20 -18 64 -39 44 -21 104 -60 134 -87 61 -55 125 -148 143 -206 6 -21 14
-38 18 -38 3 0 14 23 24 51 22 61 88 152 147 203 24 20 80 55 124 77 44 21 74
39 66 39 -32 0 -146 66 -199 115 -70 65 -106 114 -136 189 l-23 56 -41 -83z"/>
<path d="M2380 3914 c-14 -2 -68 -11 -120 -20 -433 -73 -849 -350 -1096 -729
-321 -495 -356 -1121 -92 -1650 27 -55 55 -106 61 -113 14 -18 97 -11 287 24
895 165 2052 714 2675 1271 l58 52 -23 63 c-174 482 -563 862 -1045 1024 -177
59 -276 75 -490 79 -104 2 -201 2 -215 -1z"/>
<path d="M3928 3650 c-42 -4 -97 -11 -123 -14 l-47 -7 104 -107 c57 -59 124
-135 148 -169 l44 -63 110 0 c197 -1 334 -31 394 -87 33 -31 34 -36 30 -87
-20 -244 -510 -702 -1153 -1076 -1007 -585 -2265 -938 -2778 -780 -87 27 -127
64 -127 119 0 82 73 216 195 356 l67 76 -21 113 c-12 62 -25 164 -29 227 l-7
113 -94 -84 c-180 -162 -350 -378 -420 -531 -49 -107 -63 -181 -59 -295 3 -93
6 -107 41 -176 119 -242 439 -354 916 -320 1220 86 3047 983 3647 1790 74 100
157 260 179 347 21 82 19 209 -3 283 -80 254 -358 385 -807 381 -71 -1 -164
-5 -207 -9z"/>
<path d="M387 3496 c-47 -17 -71 -38 -91 -81 -21 -44 -20 -80 5 -131 27 -56
72 -84 136 -84 93 0 158 71 150 163 -5 60 -30 95 -87 125 -51 25 -61 26 -113
8z"/>
<path d="M4050 1803 c-612 -410 -1431 -780 -2134 -963 -82 -22 -150 -41 -152
-43 -8 -7 175 -87 278 -121 528 -176 1102 -75 1543 270 210 164 398 406 499
642 41 96 98 270 94 287 -2 7 -56 -23 -128 -72z"/>
<path d="M4495 1816 c-163 -76 -207 -283 -88 -416 60 -67 126 -94 214 -88 228
17 331 287 170 448 -80 80 -197 103 -296 56z"/>
<path d="M3963 739 c-17 -5 -45 -23 -62 -40 -98 -98 -29 -259 111 -259 84 0
148 66 148 151 0 102 -100 177 -197 148z"/>
</g>
</svg>
